<?xml version="1.0" encoding="UTF-8"?>
<svg viewBox="0 0 900 1000" xmlns="http://www.w3.org/2000/svg" xmlns:xlink="http://www.w3.org/1999/xlink">
<style type="text/css">.red-player {fill: red; stroke:red}
        .black-player {fill: black; stroke:black}
        .counter {fill: #F4D03F}
        .open-move {fill-opacity: 0.5}
        .close-move {stroke-width: 0.2; fill-opacity: 0}</style>
<defs>
<circle id="p" class="red-player open-move" r=".5"/>
<circle id="g" class="red-player close-move" r=".5"/>
<circle id="a" class="counter" r=".5"/>
<g id="b" class="red-player">
<use xlink:href="#a"/>
<g transform="scale(.001 -.001) translate(-500 -400)">
<path d="m383 657q141 33 209 62 52 18 97 24 19 0 24 9 4 12-8 26-22 19-72 41-16 10-32 9-9-4-10-16-4-40-223-135c-27-12-14-27 15-20z"/>
<path d="m385 545q-1 69 1 88 1 13-3 24c-2 11-2 11-15 20q-28 22-62 30-18 6-28-2-10-7-1-27 28-46 41-97 10-52 34-263c3-30 53-25 50 5q-10 109-15 184l-2 38z"/>
<path d="m618 531q138 27 144 33 10 9 5 18-7 13-40 23-27 6-136-24-105-25-206-36c-30-3-28-35 2-38q39-6 137 8 22 4 48 8l46 8z"/>
<path d="m619 351q27 106 42 136 4 9-12 25-16 12-31 19c-27 13-58 19-46-8q0-1 2-5 15-24 2-173c-3-30 36-23 43 6z"/>
<path d="m352 318q-118-10-246-26-22-1-6-21 16-16 35-22 24-6 41-1 249 63 673 64 25 0 50-1 22-1 28 9 6 13-12 28-58 45-99 36-79-15-197-33l-43-6q-37-4-79-10-46-4-95-12l-50-5z"/>
<path d="m351 201q-76-76-198-159-15-13 2-20 48 0 189 87 60 45 83 50 22 7 17 28-7 18-43 52-12 12-25 10-18-4-14-20t-11-28z"/>
<path d="m598 200q70-67 152-165 18-24 36-30 10-1 19 10 16 15 3 67-13 66-207 154-10 7-13-8-1-16 10-28z"/>
</g>
</g>
<g id="c" class="black-player">
<use xlink:href="#a"/>
<g transform="scale(.001 -.001) translate(-500 -400)">
<path d="m479 820q51-48 83-57 16-1 25 13 4 15 0 32-18 42-99 54-18 4-27-1-7-3-3-15 3-13 21-26z"/>
<path d="m311 695q-36-4-11-22 39-22 111-13 123 18 253 37 64 12 73 20 9 7 5 15-6 13-34 21-33 9-117-18-151-33-280-40z"/>
<path d="m366 501q28 49 53 79 9 10-3 24-36 28-58 26-10-1-8-14 9-82-79-178-16-9-42-44-7-13 6-9 15 1 36 18 49 36 82 79l13 19z"/>
<path d="m353 482q4-6 16-16 66-61 72-63 7 0 13 10 4 10-1 32-6 27-85 56h-2c-29 6-31 5-13-19z"/>
<path d="m543 441q42 21 90 81l14 20q24 42 54 86 9 10-4 24-37 27-61 25-10-1-8-15 12-70-65-172-9-6-35-39c-19-23-11-24 15-10z"/>
<path d="m633 522q6-6 19-17 40-31 82-70 10-10 23-9 9 0 12 11 4 10-3 34-9 39-117 71h-2c-29 6-36 1-14-20z"/>
<path d="m548 310q57 6 353 5 24 0 30 10 7 13-13 30-75 57-119 35-99-16-249-37l-57-7q-175-19-378-40-25-1-7-23 34-34 82-25 144 37 303 48l55 4z"/>
<path d="m495-24q4-24 11-33 6-7 13-5 27 18 27 178-1 43 2 194l2 43q0 19 3 30 7 46-5 56-3 1-5 2l-15 10q-30 19-52 8-9-7-2-18 18-30 19-95v-40q0-313 2-330z"/>
</g>
</g>
<g id="h" class="red-player">
<use xlink:href="#a"/>
<g transform="scale(.001 -.001) translate(-500 -400)">
<path d="m146 573q-6-61-23-118-12-33 15-62 12-15 28 3 39 51 19 131-4 31-17 52-7 7-12 6-7-4-10-12z"/>
<path d="m306 524q37 21 59 35 45 36 70 44 18 7 9 22-10 13-30 26-19 12-29 10-10-1-7-12 1-25-40-69-16-16-31-35c-19-23-27-36-1-21z"/>
<path d="m295 322q6 66 11 202l1 21q1 111 25 178 7 13-4 24-22 18-59 28-24 6-32-1-9-7-1-18 57-88 10-453-27-123-81-192-25-28-59-60-10-9-10-13 1-4 12-2 13-4 42 12 118 57 141 248l4 26z"/>
<path d="m291 296q4-6 13-14 28-30 59-66 9-10 21-12 7-1 13 9t2 34q-3 22-31 41-61 33-73 34c-29 6-22-2-4-26z"/>
<path d="m541 588q57 87 78 124 15 33 29 49 9 12 3 25t-37 33q-28 16-48 13-19-4-8-25 21-33-38-163-28-58-68-124-10-12-11-18-3-12 12-8 18 7 66 64l22 30z"/>
<path d="m519 558q1 0 5-2 25-15 45-7 187 61 205 45 13-18 7-65-9-130-37-188-13-30-39-27-18 4-34 10-24 10-8-16 36-42 51-74 24-22 43 0 31 25 52 71 24 52 30 211 3 55 20 84 13 13 5 24-10 12-63 32-22 7-41-7-49-33-219-61c-30-5-49-18-22-30z"/>
<path d="m618 329q19 61 39 79 22 24 0 38-18 10-43 27-18 10-60-13-39-15-82-23c-29-6-14-35 15-27q10 3 74 17 19 4 25-4 3-3-17-91c-7-29 40-32 49-3z"/>
<path d="m471 280q13-6 29-1 40 10 130 20 10 1 11 10 0 7-23 20c-20 11-20 11-49 3q-52-15-96-25c-29-7-30-17-2-27z"/>
<path d="m958 105q-12 34-22 135 0 16-7 22-6 4-12-14-34-106-56-138-21-25-78-41-132-34-244 3-43 19-54 45-27 54-14 163l2 27q4 46 14 98 0 3 0 5c3 18 3 18-15 27q-10 9-25 13-12 4-19-1-6-3-1-19 12-36 9-69-12-205 6-261 4-31 35-57 114-82 347-35 7 3 17 4 55 16 109 53 19 13 8 40z"/>
</g>
</g>
<g id="n" class="black-player">
<use xlink:href="#a"/>
<g transform="scale(.001 -.001) translate(-500 -400)">
<path d="m284 581q159 45 165 50 9 9 3 17-7 12-38 17-31 4-61-10-40-16-84-30-49-13-106-22-37-9-9-24 27-15 76-12l54 14z"/>
<path d="m237 375q27 57 62 146 13 36 14 38-10 18-29 22c-28 11-60 15-54-14q15-51-36-180l-15-33q-66-108-132-195-7-6 4-7 54 18 142 144 0 3 3 5l41 74z"/>
<path d="m194 387q-3 1-7 2-12 3-14-2-6-4 1-20 1-4 5-13l17-53q10-42 19-99 1-31 19-51 15-21 20-6 7 19 2 57l-5 33q-13 81-16 111l-41 41z"/>
<path d="m385 260q19 72 41 93 21 24-1 37-18 10-43 27-18 12-59-14-39-15-86-28c-31-9-31-36-2-29q6 1 14 4 40 10 76 19 24 6 29-3 7-6-1-38-7-30-16-65c-7-29 40-32 48-3z"/>
<path d="m256 202q9-1 20 2 39 12 123 25 10 1 11 11 0 7-25 20l-48 3q-4 0-7-2-43-16-79-26c-29-8-25-32 5-33z"/>
<path d="m550 595q37 46 80 114 18 34 34 50 10 12 4 25-4 13-34 35-28 18-47 17-19-3-10-25 12-22 4-41-22-66-57-128-34-60-82-126-10-10-12-18-3-10 11-8 25 6 94 87l15 18z"/>
<path d="m535 577q6-4 17-9 22-13 40-7 189 54 201 38 10-13 7-51-4-102-27-148-16-31-43-28-12 0-23 1-25 7-7-16 28-36 41-62 19-19 37-2 57 42 76 189 4 96 25 121 12 13 5 23-9 10-60 31-19 7-38-6-19-12-95-31t-141-25c-30-3-41-4-15-18z"/>
<path d="m655 337q19 69 40 90 19 22 0 35-16 10-41 26-16 9-33-1-21-13-49-23-25-7-55-16c-29-9-13-34 15-24q3 3 71 18 21 4 26-3 6-6-2-35-7-28-17-61c-9-29 37-35 45-6z"/>
<path d="m514 293q13-6 30-3 39 9 122 17 10 1 10 10 0 7-21 20l-45 6q-3 0-6-2-49-15-87-23c-29-6-31-14-3-25z"/>
<path d="m517 448q-10 9-26 15-13 4-20-1-7-4-2-21 12-37 9-72-15-207 3-265 4-30 33-55 90-75 304-47 19 4 41 9 52 15 103 50 21 16 7 43-13 21-32 88-1 16-8 22-6 4-11-15-30-73-47-95-18-22-71-36-123-30-224 10-40 19-50 44-24 51-12 171l3 25q4 46 14 97 1 4 1 9c2 14 2 14-15 24z"/>
</g>
</g>
<g id="i" class="red-player">
<use xlink:href="#a"/>
<g transform="scale(8e-4 -.001) translate(-550 -400)">
<path d="m244 513q46 60 99 136 31 52 58 78 10 10 6 25t-34 40q-28 21-48 21-21-1-12-25 13-36-1-65-75-165-260-370-10-10-13-17-4-13 11-10 36 4 145 129 3 7 21 25l28 33z"/>
<path d="m216 480q22-40 24-119 0-124-27-238-15-49 22-97 1-3 5-6 19-16 31 12 15 42 15 90 0 247 8 303 7 28-3 39-18 22-32 36-7 7-15 13c-23 19-41-6-28-33z"/>
</g>
<g transform="scale(9e-4 -8e-4) translate(-370 -400)">
<path d="m552 695q58 12 119 22 52 12 59 18 10 7 5 17-7 12-37 20-31 7-61-4-42-13-84-25l-63-14q-61-10-127-16-37-4-11-23 39-24 112-10 12 3 26 3l62 12z"/>
<path d="m317 580q-24 12-47 15-7 1-13-4-7-7 4-18 33-39 58-170 7-66 49-91 1 0 3-1 15-3 17 19l-3 34q-4 24-13 49-19 105-23 128c-5 26-5 26-32 39z"/>
<path d="m655 361q0-3 2-7 4-18 19-17 16 1 25 17 16 18 45 107 21 58 62 90 22 18 5 36-19 19-76 51-18 13-87-5-52-3-101-14l-59-10q-30-4-55-10-70-13-118-19c-30-4 3-47 32-39q51 16 142 30l58 9q129 21 152 9 10-7 3-42-30-129-44-157l-5-29z"/>
<path d="m549 466q37 7 73 10 22 3 15 16-10 15-36 21-19 4-52-4l-57-14q-43-10-80-18-16-4 3-19 10-7 31-5 22 4 46 6l57 7z"/>
<path d="m550 352q45 6 105 9c30 2 31 14 5 29q-30 22-111 1l-56-11q-58-10-108-16c-30-4-27-35 3-34q7 0 15 1 34 9 90 14l57 7z"/>
<path d="m551 225q79 6 349 7 25-1 31 10 7 15-13 32-79 60-125 37-96-16-242-38l-59-9q-169-19-368-41-27-1-7-24 42-39 86-26 171 45 258 45 13 3 31 2l59 5z"/>
<path d="m492 220q-9-177 8-258 3-18 11-30 16-16 25 7 16 39 15 286v48q-1 37-1 79l-1 39q0 40 0 75v43q0 37 0 71v39q1 43 3 76l1 48q0 1 1 2 1 36 20 67 7 18-15 34-27 21-73 32-21 6-35-10-10-9 4-22 31-27 34-65 0-22 1-52v-46q0-33 0-74l1-38q0-34 1-76v-36q0-39 1-79v-35q0-43-1-81v-44z"/>
</g>
</g>
<g id="m" class="black-player">
<use xlink:href="#a"/>
<g transform="scale(.001 -.001) translate(-500 -400)">
<path d="m552 695q58 12 119 22 52 12 59 18 10 7 5 17-7 12-37 20-31 7-61-4-42-13-84-25l-63-14q-61-10-127-16-37-4-11-23 39-24 112-10 12 3 26 3l62 12z"/>
<path d="m317 580q-24 12-47 15-7 1-13-4-7-7 4-18 33-39 58-170 7-66 49-91 1 0 3-1 15-3 17 19l-3 34q-4 24-13 49-19 105-23 128c-5 26-5 26-32 39z"/>
<path d="m655 361q0-3 2-7 4-18 19-17 16 1 25 17 16 18 45 107 21 58 62 90 22 18 5 36-19 19-76 51-18 13-87-5-52-3-101-14l-59-10q-30-4-55-10-70-13-118-19c-30-4 3-47 32-39q51 16 142 30l58 9q129 21 152 9 10-7 3-42-30-129-44-157l-5-29z"/>
<path d="m549 466q37 7 73 10 22 3 15 16-10 15-36 21-19 4-52-4l-57-14q-43-10-80-18-16-4 3-19 10-7 31-5 22 4 46 6l57 7z"/>
<path d="m550 352q45 6 105 9c30 2 31 14 5 29q-30 22-111 1l-56-11q-58-10-108-16c-30-4-27-35 3-34q7 0 15 1 34 9 90 14l57 7z"/>
<path d="m551 225q79 6 349 7 25-1 31 10 7 15-13 32-79 60-125 37-96-16-242-38l-59-9q-169-19-368-41-27-1-7-24 42-39 86-26 171 45 258 45 13 3 31 2l59 5z"/>
<path d="m492 220q-9-177 8-258 3-18 11-30 16-16 25 7 16 39 15 286v48q-1 37-1 79l-1 39q0 40 0 75v43q0 37 0 71v39q1 43 3 76l1 48q0 1 1 2 1 36 20 67 7 18-15 34-27 21-73 32-21 6-35-10-10-9 4-22 31-27 34-65 0-22 1-52v-46q0-33 0-74l1-38q0-34 1-76v-36q0-39 1-79v-35q0-43-1-81v-44z"/>
</g>
</g>
<g id="e" class="red-player">
<use xlink:href="#a"/>
<g transform="scale(8e-4 -.001) translate(-530 -400)">
<path d="m244 513q46 60 99 136 31 52 58 78 10 10 6 25t-34 40q-28 21-48 21-21-1-12-25 13-36-1-65-75-165-260-370-10-10-13-17-4-13 11-10 36 4 145 129 3 7 21 25l28 33z"/>
<path d="m216 480q22-40 24-119 0-124-27-238-15-49 22-97 1-3 5-6 19-16 31 12 15 42 15 90 0 247 8 303 7 28-3 39-18 22-32 36-7 7-15 13c-23 19-41-6-28-33z"/>
</g>
<g transform="scale(.00075 -8e-4) translate(-325 -400)">
<path d="m548 771q189 36 194 39 7 7 4 15-6 12-32 19-21 6-132-24-117-24-216-31-3 0-5-2c-29-6-11-27 19-30q16-4 110 5 3 1 8 1l50 8z"/>
<path d="m361 787q-4 4-11 8-37 25-57 28-15-1-18-12-3-12 7-21 16-27 20-48 15-160-16-335-7-25-6-30 1-10 16-22 16-13 23-15c26-15 36 58 34 88q-4 28 2 178 10 124 18 136 4 7 7 15c6 12 5 12-19 30z"/>
<path d="m566 641q103 27 105 28 7 7 4 14-7 9-30 14-30 6-78-16l-54-15q-34-7-75-12-28-6-8-19 33-18 79-6 1 1 4 0l53 12z"/>
<path d="m561 518q37 10 77 18 33 9 37 13 7 7 4 14-7 9-30 14-24 4-87-20l-49-13q-42-7-87-14-28-4-8-18 27-13 92-4 1 0 3 0l48 10z"/>
<path d="m562 557q1 45 4 84l1 40q0 18 3 45 7 21-21 44l-1 1c-22 20-61 20-50-8q10-18 15-97v-37q0-34 0-85v-36q1-37 1-81c0-30 44-24 45 6q1 45 2 85l1 39z"/>
<path d="m319 340q177 66 446 78 15-1 32-10 13-10 11-29 1-18-26-174-21-93-43-127-10-22-36-20-28 9-56 16-19 7-23 3-4-6 13-19 61-79 65-103 4-10 15-12 18-4 54 31 34 34 46 78 64 322 87 338 10 7 9 15 1 9-34 36-48 30-79 20-24-3-50-6-81 0-191-22l-45-6q-73-9-122-22-37-4-39 23c-21 22-62-98-34-88z"/>
<path d="m184 301q-10-58-32-114-12-37 14-69 12-16 30 2 19 22 26 57 7 40 1 72-1 34-15 58-7 7-13 7-9-4-11-13z"/>
<path d="m304 255q10-60 27-81 9-9 21-3 10 6 16 19 7 39-35 83-1 3-3 4-10 10-18 12-4 1-8-8t0-26z"/>
<path d="m423 278q18-49 42-74 12-7 23 2 9 9 11 23 1 22-9 38-15 21-46 39-12 9-21 8-6 1-7-10-1-10 7-26z"/>
<path d="m565 311q28-63 57-88 13-7 25 3 10 10 12 27 0 42-71 89l-1 1q-13 9-24 8-6 0-7-12-1-10 9-28z"/>
</g>
</g>
<g id="j" class="black-player">
<use xlink:href="#a"/>
<g transform="scale(.001 -.001) translate(-500 -400)">
<path d="m548 771q189 36 194 39 7 7 4 15-6 12-32 19-21 6-132-24-117-24-216-31-3 0-5-2c-29-6-11-27 19-30q16-4 110 5 3 1 8 1l50 8z"/>
<path d="m361 787q-4 4-11 8-37 25-57 28-15-1-18-12-3-12 7-21 16-27 20-48 15-160-16-335-7-25-6-30 1-10 16-22 16-13 23-15c26-15 36 58 34 88q-4 28 2 178 10 124 18 136 4 7 7 15c6 12 5 12-19 30z"/>
<path d="m566 641q103 27 105 28 7 7 4 14-7 9-30 14-30 6-78-16l-54-15q-34-7-75-12-28-6-8-19 33-18 79-6 1 1 4 0l53 12z"/>
<path d="m561 518q37 10 77 18 33 9 37 13 7 7 4 14-7 9-30 14-24 4-87-20l-49-13q-42-7-87-14-28-4-8-18 27-13 92-4 1 0 3 0l48 10z"/>
<path d="m562 557q1 45 4 84l1 40q0 18 3 45 7 21-21 44l-1 1c-22 20-61 20-50-8q10-18 15-97v-37q0-34 0-85v-36q1-37 1-81c0-30 44-24 45 6q1 45 2 85l1 39z"/>
<path d="m319 340q177 66 446 78 15-1 32-10 13-10 11-29 1-18-26-174-21-93-43-127-10-22-36-20-28 9-56 16-19 7-23 3-4-6 13-19 61-79 65-103 4-10 15-12 18-4 54 31 34 34 46 78 64 322 87 338 10 7 9 15 1 9-34 36-48 30-79 20-24-3-50-6-81 0-191-22l-45-6q-73-9-122-22-37-4-39 23c-21 22-62-98-34-88z"/>
<path d="m184 301q-10-58-32-114-12-37 14-69 12-16 30 2 19 22 26 57 7 40 1 72-1 34-15 58-7 7-13 7-9-4-11-13z"/>
<path d="m304 255q10-60 27-81 9-9 21-3 10 6 16 19 7 39-35 83-1 3-3 4-10 10-18 12-4 1-8-8t0-26z"/>
<path d="m423 278q18-49 42-74 12-7 23 2 9 9 11 23 1 22-9 38-15 21-46 39-12 9-21 8-6 1-7-10-1-10 7-26z"/>
<path d="m565 311q28-63 57-88 13-7 25 3 10 10 12 27 0 42-71 89l-1 1q-13 9-24 8-6 0-7-12-1-10 9-28z"/>
</g>
</g>
<g id="d" class="red-player">
<use xlink:href="#a"/>
<g transform="scale(.001 -.001) translate(-500 -400)">
<path d="m362 508q25 7 56 13 49 12 57 19 10 9 5 19-9 13-42 21-40 6-74-10l-47-17q-153-36-210-43-42-7-12-26 48-27 111-10 43 10 91 19l65 15z"/>
<path d="m359 419q1 43 3 89l2 62q0 111 23 191 13 27-12 45-16 12-46 31-25 19-46 2-6-4 1-21 33-51 33-101 1-73 1-158-1-1-1-6l-5-146q-7-193-13-226-7-40-19-80-12-42 14-106 7-18 15-22 7-7 15 2 27 18 29 84-1 42 5 328l1 32z"/>
<path d="m297 493q-63-135-238-333-7-10 5-13 24-4 145 120 54 55 103 140c64 109-2 113-15 86z"/>
<path d="m358 387q4-4 13-11 31-25 63-56 12-12 25-11 10 0 14 12 4 13-3 38-9 30-103 59-3 1-8 1c-30 2-23-12-1-32z"/>
<path d="m580 609q-21 16-45 23-9 1-15-7-4-6 4-16 51-111 18-368-6-34-17-72-7-27-2-46 10-34 21-47 12-13 22 1 12 12 17 47l6 36q3 30 4 122v32q0 54 0 109v30q0 91 5 123c2 19 2 19-18 33z"/>
<path d="m742 138q31-37 53-73 10-19 21-18 18 1 33 37 19 40 14 89-12 127-21 361-1 33 16 55 10 13 0 25-19 19-75 44-19 10-35 0-33-16-168-49c-29-7-12-38 18-33q6 0 143 27 19 4 28-4 36-28 19-415-1-4-1-9-3-12-12-14c-15-26-44-9-33-23z"/>
<path d="m593 423q1 0 5 0 73 12 128 19 25 4 15 18-12 15-38 19-33 3-110-26c-28-10-30-30 0-30z"/>
<path d="m593 282q4 0 10 0 72 9 125 13 28 4 17 20-12 16-42 22-48 7-110-23c-27-13-30-32 0-32z"/>
<path d="m583 124q90 10 159 14c30 2 50 3 33 23q-12 16-39 22-36 7-147-23c-29-8-36-39-6-36z"/>
</g>
</g>
<g id="l" class="black-player">
<use xlink:href="#a"/>
<g transform="scale(.001 -.001) translate(-500 -400)">
<path d="m448 771q9 9 17 14 9 6 7 17-1 10-20 31-18 18-32 20-13 1-11-17 6-25-51-98-28-33-65-68-9-6-11-10-4-9 6-8 36 0 140 99l20 20z"/>
<path d="m518 653q85 70 117 84 19 9 8 23-12 13-47 38-16 7-31-1-9-4-84-21-16-3-33-5c-30-4-49-11-20-20q21-10 103 1 9 1 11-2 3-3-2-10-31-57-52-83-4-4-6-9c-16-25 13-14 36 5z"/>
<path d="m261 614q-13 4-33 5-13 3-15-3-6-7 4-22 25-42 47-113 4-22 19-35 19-21 23-4 1 6 2 13l-3 30q0 1 0 4-15 67-19 92c-5 28-5 28-25 33z"/>
<path d="m631 494l1-2q4-16 16-16 13 1 21 14 7 4 25 27 19 49 57 75 19 13 4 30-16 18-62 46-15 10-94-5-21 0-81-10l-36-5q-52-6-99-15-72-13-122-19c-30-4-4-42 25-33q60 19 164 34l42 5q147 21 170 9 6-4 1-22-18-69-27-84c-9-22-9-22-5-29z"/>
<path d="m450 475q76 12 181 19c30 2 30 13 5 29q-24 24-139-7-15-1-28-6l-53-10q-58-7-111-15c-30-4-27-34 3-30l87 13 55 7z"/>
<path d="m428 442q10 16 22 33l19 35q7 13 15 28 33 55 31 61-4 7-23 21c-24 18-40 25-42-5q-1-43-21-89-6-12-13-26l-21-32q-72-87-140-138-22-15-50-35-7-6-2-9 6-3 16 1 123 42 193 133l16 22z"/>
<path d="m556 316q-33 58-86 99-27 22-42 27c-27 14-40-3-16-22q1-1 5-4 13-10 27-22l42-44q9-12 18-26l28-57q21-73-12-180-12-36-23-40-13-6-87 11-40 9-42 2-1-7 11-20 72-52 102-88 13-16 26-13 19 3 37 28 49 82 46 220-10 63-12 69l-22 60z"/>
<path d="m444 394q-21-81-247-217-18-10 4-9 81 0 234 135 6 6 51 47c22 20-32 72-42 44z"/>
<path d="m504 324q-93-145-315-273-13-10-5-14 9-6 22-2 132 30 277 177 46 46 45 49 1 3 4 6c16 25-11 82-28 57z"/>
<path d="m574 302q97 58 146 79 19 3 16 15-4 16-22 38-18 21-41 25-15 1-16-19 1-22-101-124c-21-21-8-29 18-14z"/>
<path d="m578 256q67-75 141-145 24-24 63-24 72-1 146 15 19 3 20 8 3 7-13 13-177 57-202 71-3 3-6 4-64 33-153 104c-25 20-56 21 4-46z"/>
</g>
</g>
<g id="f" class="red-player">
<use xlink:href="#a"/>
<g transform="scale(.001 -.001) translate(-500 -400)">
<path d="m244 513q46 60 99 136 31 52 58 78 10 10 6 25t-34 40q-28 21-48 21-21-1-12-25 13-36-1-65-75-165-260-370-10-10-13-17-4-13 11-10 36 4 145 129 3 7 21 25l28 33z"/>
<path d="m216 480q22-40 24-119 0-124-27-238-15-49 22-97 1-3 5-6 19-16 31 12 15 42 15 90 0 247 8 303 7 28-3 39-18 22-32 36-7 7-15 13c-23 19-41-6-28-33z"/>
<path d="m648 425q25 6 233 38 13-1 24 13 1 15-26 26-42 24-101 5-61-16-121-32-4 0-8-3l-52-11q-66-10-236-35-34-4-8-25 39-30 84-19 72 18 160 33l51 10z"/>
<path d="m640 191q4 121 8 234l1 47q0 144 27 261 4 13-21 31-43 22-72 26-19 4-29-6-9-10 1-28 36-49 36-85 4-100 6-210v-46q-1-111-6-232c-1-30 48-22 49 8z"/>
<path d="m591 183q-88-13-191-29-21-1-5-19 31-28 70-19 132 34 370 35 19 1 25 9 4 12-12 26-60 42-117 23-39-7-91-18l-49-8z"/>
</g>
</g>
<g id="k" class="black-player">
<use xlink:href="#a"/>
<g transform="scale(.001 -.001) translate(-500 -400)">
<path d="m535 412q183 24 337 11 25-3 31 7 7 13-5 26-31 28-77 48-15 6-42-3-66-16-134-26-64-7-109-14l-54-7q-9 3-185-23-66-10-165-13-13-1-15-12-1-13 19-28 18-13 50-25 12-4 30 5 16 6 86 19 81 19 180 30l53 5z"/>
<path d="m530 159q3 133 5 253l1 49q0 189 18 240 12 22-3 35-37 28-67 37-16 4-31-9-6-7 1-19 30-48 28-103 0-91 0-188v-47q0-123 0-254c0-30 47-24 48 6z"/>
<path d="m482 153q-96-12-208-25-22-1-6-21 16-16 35-22 24-7 41-2 99 25 360 25 13 0 27-1 22-1 28 9 6 13-12 28-63 48-133 30-36-6-84-15l-48-6z"/>
</g>
</g>
<g id="q" class="red-player">
<use xlink:href="#a"/>
<g transform="scale(.001 -.001) translate(-500 -400)">
<path d="m236 580q42 49 66 82 49 73 72 92 18 16 2 30-19 13-48 19-27 6-39 0t-4-17q15-31-67-203-1 0-1-1c-14-26 0-25 19-2z"/>
<path d="m222 320q0 55 2 96l1 28q0 99 4 104c3 22 3 22-12 34q-15 15-37 22-10 4-22 1-7-6-1-18 19-70 21-93 12-204-19-326-15-55 22-102 10-13 22-1 10 15 16 79l1 32q0 84 1 116l1 28z"/>
<path d="m407 478q24 70 52 87 15 16 1 32-66 54-116 21-30-12-108-38c-28-10-56-42-7-32q10 1 24 7 54 13 105 28 13 4 19-1 7-7 5-24-10-43-21-77c-9-29 36-31 46-3z"/>
<path d="m224 416q16-4 32-1 52 15 166 30 10 1 11 11 0 7-26 22l-46 3q-4 0-6-1-72-24-130-36c-29-6-30-22-1-28z"/>
<path d="m406 204q24 67 52 92 16 18 1 34-72 54-124 23-72-24-113-33c-29-7-31-31-1-28q9-1 133 24 10 1 16-2 7-7 6-23-9-46-19-84c-7-29 39-31 49-3z"/>
<path d="m219 144q10-3 24 1 55 13 177 24 10 1 12 10 0 9-26 25c-15 9-19 8-49 3h-2q-75-19-135-31c-29-6-31-27-1-32z"/>
<path d="m546 529q-18 18-49 15-13-4-7-15 36-72 6-183-24-42 10-88l2-2q7-13 16-7 28 21 29 100 1 117 4 146c2 23 2 23-11 34z"/>
<path d="m704 523q102 21 115 8 16-13 14-59-3-45-5-101 0-40-14-56-6-12-30-6-19 3-40 6-16 4-21-2-4-4 11-15 52-40 82-75 16-15 36-7 13 6 23 36 22 46 19 105-9 127 3 170 7 16 1 25-22 15-57 29-19 7-34 1-34-16-102-28l-57-12q-46-7-102-13c-30-3-19-37 11-34q7 0 16 1 40 9 75 15l56 12z"/>
<path d="m648 511q0-276-5-363-3-190 17-220 15-16 24 6 19 45 18 398 0 109 2 191l1 31q1 93 6 148 1 34 20 64 7 16-14 33-25 19-70 32-21 4-34-10-10-7 3-21 31-25 33-62 0-73-1-196v-31z"/>
</g>
</g>
<g id="u" class="black-player">
<use xlink:href="#a"/>
<g transform="scale(.001 -.001) translate(-500 -400)">
<path d="m343 556q-108-21-110-19-9 9 6 121 9 21-46 48-18 9-27 5-12-6-2-21 25-40 23-97 0-46-13-70-9-19 2-40 15-24 31-12 43 21 136 55c28 10 29 36 0 30z"/>
<path d="m339 375q-4-162-14-216-18-90-4-127 3-7 7-18 7-18 15-21 6-7 13 2 7 4 17 24 6 15 9 157 0 226 4 231-1 1-2 1 1 76 3 169 1 94 19 157 9 15 5 28-6 10-61 43-22 16-43 1-4-4 2-20 31-46 32-94 1-63 2-136v-30q-1-60-3-124l-1-27z"/>
<path d="m221 334q91 33 118 41c29 9 30 33 1 27q-231-51-267-48-12-1-14-10-3-12 5-20 19-16 48-35 9-4 20 3 25 16 53 28l36 14z"/>
<path d="m185 320q6-6 4-34-15-108-114-252-4-4-4-11 1-4 6-4 66 27 157 217 0 9 22 48 4 10-4 22-16 19-31 28c-25 17-46 14-36-14z"/>
<path d="m643 713q15 13 32 30 16 19 31 28 9 7 7 20-1 10-22 34-19 19-35 22-16 1-12-18 7-30-58-109-31-36-72-75-10-7-13-12-4-9 8-9 21 0 117 74l17 15z"/>
<path d="m626 698q22-22 109-6 18 9 26-4 3-6-9-20-87-124-317-260-15-9-2-12 76 0 257 136 3 4 7 6 54 45 108 100 22 24 57 45 15 9 11 18-1 9-54 38-16 12-35 1-22-10-53-16-46-7-88-11c-30-3-38-4-17-15z"/>
<path d="m596 630q10-15 24-29 15-13 28-12 12-1 16 15 1 10-8 27-18 21-58 21-7 1-8-9-1-7 6-13z"/>
<path d="m481 570q51-54 73-54 13-1 18 18 0 13-10 31-19 25-78 32-10 1-9-11-1-7 6-16z"/>
<path d="m753 363q63 6 145 8 55 0 62 10 4 10-11 22-55 37-113 17-36-6-79-18l-58-11q-13-1-26-4-109-18-239-39-18-1-4-17 13-12 29-16 19-4 34 0 96 30 207 42l53 6z"/>
<path d="m700 357q12-268-13-291-10-7-24-3-31 4-60 9-13 1-12-6t12-15q72-61 95-96 16-16 32-2 31 33 32 117-9 96-9 293l4 39q1 18 8 31 9 19-9 33-27 22-58 33-19 7-28-2-6-7 5-23 24-39 24-83l1-34z"/>
<path d="m500 219q24-27 48-58 12-15 27-16 10-1 18 12 7 13 2 45-7 33-93 65-15 6-22 4-6-3-5-16 1-12 25-36z"/>
</g>
</g>
<g id="s" transform="scale(.001 -.001) translate(-500 -400)">
<path d="m399 611q25 7 53 13 34 9 40 14 7 7 3 15-7 10-34 16-42 6-58-9l-39-14q-82-22-145-32-34-7-9-21 42-21 92-5 15 4 35 8l62 15z"/>
<path d="m396 562q1 25 3 49l4 49q3 72 24 107 6 9-5 21-49 39-74 30-13-4-7-18 22-36 23-154l-2-96q-4-70-10-101-1-10 14-47 9-15 22-7 7 6 8 139v28z"/>
<path d="m337 596q-10-76-169-210-13-10 0-11 9-1 39 15 36 16 67 46 54 52 88 114c36 64-18 83-25 46z"/>
<path d="m396 534q54-37 55-39 1 0 5 0 7 1 10 9 1 10-5 28-4 13-25 21-19 6-40 9c-30 4-25-11 0-28z"/>
<path d="m681 649q141 36 142 37 9 7 4 15-7 10-33 17-28 4-55-6t-54-19l-40-12q-54-12-113-19-34-6-9-21 34-18 87-9l71 17z"/>
<path d="m679 615q0 18 2 34l4 44q9 76 25 105 6 9-4 22-49 39-75 30-12-4-6-17 22-37 20-97 0-28 0-55l-2-68q-4-75-11-107-1-12 14-48 9-15 22-7 10 9 11 79 0 30-1 61l1 24z"/>
<path d="m610 632q-33-79-138-167-12-10 0-10 7-1 35 14 31 13 57 37 57 57 79 107c16 34-13 64-33 19z"/>
<path d="m678 591q51-36 113-89 13-13 26-16 7 0 11 8 9 12-5 44-13 39-144 77c-29 8-25-7-1-24z"/>
<path d="m512 365q105 28 141 25 16-4 17-11 0-6-35-66-7-12-2-17 7-4 23 6 55 28 99 36 36 7 35 16-1 10-70 66-24 21-104 1-37-4-232-47-40-9-82-15-31-4-11-21 33-25 67-15 79 30 116 34l38 8z"/>
<path d="m536 101q3 57 6 105l2 32q3 97 3 99l-1 1q-16 18-34 27c-26 15-49 20-38-8q12-24 15-107 0-45 1-128c0-30 44-51 46-21z"/>
<path d="m542 206q1 0 8 0 73 10 127 15 25 4 16 18-12 16-40 22-42 7-109-23c-27-12-32-32-2-32z"/>
<path d="m383 181q13 16 27 31 12 12-1 28-39 39-64 37-10-1-10-16 1-100-120-203-30-24-45-38-10-15 6-11 51 0 145 96 34 42 45 56l17 20z"/>
<path d="m366 161q61-43 125-86-1 0 0-1 196-124 228-127 64 0 173 46 19 6 19 12 1 7-16 10-63 10-136 19-105 15-223 67l-46 21q-19 10-40 21-40 25-67 38c-27 14-42-3-17-20z"/>
</g>
<g id="o" transform="scale(.001 -.001) translate(-500 -400)">
<path d="m253 745q22-19 48-44 16-15 34-13 12 1 17 16 4 18-7 51-7 19-37 30-75 22-88 14-6-4-3-19 4-13 36-35z"/>
<path d="m149 549q46-46 82-59 18-1 27 14 6 16 1 35-10 27-32 40-36 18-84 18-9 0-14-4-7-1-3-16 3-13 23-28z"/>
<path d="m145 194q-13-4-10-22 12-75 49-97 7-7 18-4 9 1 9 28 6 43 98 284 7 16 6 23-1 10-10 3-10-7-23-24-52-82-99-153-12-19-38-38z"/>
<path d="m743 662q70 6 184 7 21 1 25 10 6 12-12 26-57 39-94 29-135-31-502-87-22-3-5-20 31-28 72-19 126 36 279 50l53 4z"/>
<path d="m419 504q-13 4-39 8-12 4-15-2-7-6 2-22 25-51 42-135 4-25 19-42 18-22 23-6 4 10 3 27l-3 33q-15 85-16 110c-2 25-2 25-16 29z"/>
<path d="m583 385q18 70 39 92 24 27-1 41-19 12-48 30-21 10-62-15-39-16-92-29c-29-7-13-37 16-29q22 7 82 19 21 4 26-4 7-4 0-36-7-31-15-70c-6-29 47-28 55 1z"/>
<path d="m454 332q7-1 17 1 40 9 130 16 10 1 11 11 0 7-29 25c-15 10-26 7-55-1q-45-12-77-19c-29-6-27-31 3-33z"/>
<path d="m661 92q-22 10-52 19-12 4-12-3-1-7 9-19 61-60 99-108 12-10 27 7 43 54 42 137-12 297-5 419 1 28 4 56 7 28 0 39-7 10-30 23c-25 16-66 23-53-4q1-4 7-13 12-25 11-68 3-136 1-445-1-31-11-42-10-6-37 2z"/>
</g>
<g id="r" transform="scale(.001 -.001) translate(-500 -400)">
<path d="m226 723q25-24 51-51 15-16 33-15 13 1 18 16 6 16-4 51-6 19-37 34-78 30-91 21-6-4-4-19 4-13 34-37z"/>
<path d="m128 533q48-55 87-76 16-3 27 12 7 13 5 33-12 48-102 73-1 1-2 1-19 4-29 1-7-1-5-15 1-13 19-29z"/>
<path d="m130 145q-13-4-9-22 22-79 56-93 7-7 18-4 7 3 8 29 1 39 84 304 6 16 5 23-1 10-11 3-12-9-114-196-10-22-37-44z"/>
<path d="m683 712q61 10 115 16 10-1 19 11 1 10-21 21-30 22-103-2l-60-15q-9 0-108-22l-48-6q-48-3-101-12-27-3-6-20 28-24 68-15 21 6 47 9l41 8q46 10 105 19l52 8z"/>
<path d="m525 721q0 66-4 70-1 1-2 1-13 10-38 17-19 4-36-5-9-7 4-19 16-24 28-70l8-38q16-102 24-117 7-9 13-2 3 4 6 14l2 38q-1 15-2 28-1 25-2 47l-1 36z"/>
<path d="m664 635q9 40 19 77l10 46q1 4 3 9 0 4 17 44 4 9-12 25-30 21-51 28-13 4-22-2-7-6-2-20 10-19 10-33-1-31-3-66l-2-39q-4-34-8-71c-3-30 34-27 41 2z"/>
<path d="m581 586q34 7 104 13 10 1 11 10 1 7-28 25-1 1-4 1l-41-2q-52-15-93-23c-52-10-24-39 51-24z"/>
<path d="m435 498q-4 9-50 13-12 3-14-3-6-6 3-20 25-42 44-112 4-21 18-34 18-19 22-5 1 7 2 18l-4 30q-12 55-15 81l-6 32z"/>
<path d="m767 433q21 42 46 55 18 16 4 34-15 13-64 40-16 7-38 1-49-19-97-32l-59-14q-61-10-124-19c-30-4-23-39 6-32q7 1 18 5 49 10 101 20l53 10q36 7 72 15 28 7 41-5 6-6 3-19-7-31-16-57c-9-29 40-28 54-2z"/>
<path d="m610 379q72 12 170 21 10 1 12 9 0 7-25 24c-15 11-25 8-54 2q-55-12-103-23l-48-10q-57-9-106-17c-30-5-26-30 4-30q6-1 16 1 34 9 85 16l49 7z"/>
<path d="m604 282q64 12 121 20 25 4 16 18-10 16-38 21-36 4-96-16l-49-11q-64-13-122-28-18-4 4-20 12-9 115 8l49 8z"/>
<path d="m623 185q85 10 208 12 61-3 69 9 4 10-12 24-51 36-87 28-76-18-207-39l-49-8q-109-16-233-33-21-3-5-19 13-13 31-18 21-4 36 0 73 21 156 31l56 9h2l35 4z"/>
<path d="m594 219q6 31 10 63l3 43q1 28 3 54v33q0 25 0 47 0 21 3 42l5 30q1 7 5 16 4 12-4 18-15 12-38 21c-27 13-72 9-53-14q27-27 31-55l1-26q1-46 2-89l-1-30q-1-30-3-58l-3-40q-1-7-2-17-1-24-8-46l-15-39q-48-75-128-115-34-16-84-37-12-4-16-7-4-4 10-8 93-6 212 75 15 12 27 26 24 31 35 75l8 38z"/>
<path d="m588 181q1-1 3-3 129-165 166-176 51-18 175 6 19 1 21 7 1 7-13 13-180 58-242 102-45 28-75 55c-23 20-54 19-35-4z"/>
</g>
<g id="t" transform="scale(.001 -.001) translate(-500 -400)">
<path d="m293 779q-12 6-45 8-13 1-15-3-6-7 4-22 39-70 66-186 6-36 28-58 19-19 23-4 1 6 2 12l-1 31q0 6-47 185c-8 29-9 35-15 37z"/>
<path d="m611 554q16-28 33-37 10-10 29 12 16 25 58 162 12 34 39 59 15 13 3 28-16 19-60 51-18 9-86-4-114-13-214-29-64-10-120-17c-30-4-14-44 15-37q60 15 150 28l42 6q151 24 170 4 12-16 8-33-36-148-57-162c-16-22-16-22-10-31z"/>
<path d="m517 660q45 9 86 13 22 4 14 16-10 13-34 18-22 4-61-6-1 0-2-1l-51-13q-52-12-98-23-16-3 3-18 12-7 35-4 31 6 61 10l47 8z"/>
<path d="m513 581q1 43 4 79l3 40q0 24 2 33 9 21-22 43c-24 18-49 23-42-6q7-25 11-83l1-35q0-33 1-79c1-30 41-22 42 8z"/>
<path d="m549 549q28 4 62 5c30 1 33 12 10 31q-4 4-9 7-21 12-99-11l-42-8q-61-9-116-16c-30-4-29-32 1-31q9 0 21 1l32 6q43 9 114 14l26 2z"/>
<path d="m377 527q0-78-157-202-4-1-6-4-43-34-151-95-9-3 1-7 57-6 193 85 120 106 154 142 9 16 29 28 7 3 8 13 0 9-9 21-18 24-30 25c-27 13-30 15-32-6z"/>
<path d="m523 547q3-7 12-17 102-121 213-230 42-46 209-18 19 1 20 7 3 7-12 13-192 76-219 94-90 54-194 151-3 1-3 2c-23 20-43 23-26-2z"/>
<path d="m354 333q25-37 4-139-27-90-89-135-13-10-26-21-12-9 0-11 42 0 99 52 61 58 73 148 15 73 18 79 7 16-7 24-45 28-66 21-12-4-6-18z"/>
<path d="m556 378q24-39 7-273-1-9-2-18 0-22-4-33-12-52 43-109 1-1 4-3 12-1 17 12 12 33 7 64-10 279-3 330 1 13-5 18-25 21-44 30-13 3-22-5-6-3 2-13z"/>
</g>
</defs>
<g transform="scale(100) translate(.5 .5)">
<g stroke="#000" stroke-width=".03">
<line y2="4"/>
<line x1="1" y2="4"/>
<line x1="2" x2="2" y2="4"/>
<line x1="3" x2="3" y2="4"/>
<line x1="4" x2="4" y2="4"/>
<line x1="5" x2="5" y2="4"/>
<line x1="6" x2="6" y2="4"/>
<line x1="7" x2="7" y2="4"/>
<line x1="8" x2="8" y2="4"/>
<line x2="8"/>
<line x2="8" y1="1" y2="1"/>
<line x2="8" y1="2" y2="2"/>
<line x2="8" y1="3" y2="3"/>
<line x2="8" y1="4" y2="4"/>
<line x2="8" y1="5" y2="5"/>
<line x2="8" y1="6" y2="6"/>
<line x2="8" y1="7" y2="7"/>
<line x2="8" y1="8" y2="8"/>
<line x2="8" y1="9" y2="9"/>
<line y1="5" y2="9"/>
<line x1="1" y1="5" y2="9"/>
<line x1="2" x2="2" y1="5" y2="9"/>
<line x1="3" x2="3" y1="5" y2="9"/>
<line x1="4" x2="4" y1="5" y2="9"/>
<line x1="5" x2="5" y1="5" y2="9"/>
<line x1="6" x2="6" y1="5" y2="9"/>
<line x1="7" x2="7" y1="5" y2="9"/>
<line x1="8" x2="8" y1="5" y2="9"/>
<line x1="3" x2="5" y2="2"/>
<line x1="3" x2="5" y1="2"/>
<line x1="3" x2="5" y1="7" y2="9"/>
<line x1="3" x2="5" y1="9" y2="7"/>
<rect x="-.45" y="4.05" width="8.9" height=".9" fill="none" stroke="blue" stroke-width=".1"/>
<use transform="rotate(90,7,4.5)" x="7" y="4.5" fill="blue" xlink:href="#s"/>
<use transform="rotate(90,5.5,4.5)" x="5.5" y="4.5" fill="blue" xlink:href="#o"/>
<use transform="rotate(270,2.5,4.5)" x="2.5" y="4.5" fill="blue" xlink:href="#t"/>
<use transform="rotate(270,1,4.5)" x="1" y="4.5" fill="blue" xlink:href="#r"/>
<rect x="-.5" y="-.5" width="9" height="10" fill="none"/>
<use y="6" xlink:href="#b"/>
<use x="2" y="6" xlink:href="#b"/>
<use x="4" y="6" xlink:href="#b"/>
<use x="6" y="6" xlink:href="#b"/>
<use x="8" y="6" xlink:href="#b"/>
<use x="1" y="7" xlink:href="#h"/>
<use x="7" y="7" xlink:href="#h"/>
<use y="9" xlink:href="#i"/>
<use x="1" y="9" xlink:href="#e"/>
<use x="2" y="9" xlink:href="#d"/>
<use x="3" y="9" xlink:href="#f"/>
<use x="4" y="9" xlink:href="#q"/>
<use x="5" y="9" xlink:href="#f"/>
<use x="6" y="9" xlink:href="#d"/>
<use x="7" y="9" xlink:href="#e"/>
<use x="8" y="9" xlink:href="#i"/>
<use y="3" xlink:href="#c"/>
<use x="2" y="3" xlink:href="#c"/>
<use x="4" y="3" xlink:href="#c"/>
<use x="6" y="3" xlink:href="#c"/>
<use x="8" y="3" xlink:href="#c"/>
<use x="1" y="2" xlink:href="#n"/>
<use x="7" y="2" xlink:href="#n"/>
<use xlink:href="#m"/>
<use x="1" xlink:href="#j"/>
<use x="2" xlink:href="#l"/>
<use x="3" xlink:href="#k"/>
<use x="4" xlink:href="#u"/>
<use x="5" xlink:href="#k"/>
<use x="6" xlink:href="#l"/>
<use x="7" xlink:href="#j"/>
<use x="8" xlink:href="#m"/>
<use x="3" y="3" xlink:href="#g"/>
<use x="4" y="3" xlink:href="#g"/>
<use x="5" y="9" xlink:href="#p"/>
</g>
</g>
</svg>
